<mxfile host="app.diagrams.net" modified="2021-01-01T19:37:32.805Z" agent="5.0 (Macintosh; Intel Mac OS X 11_1_0) AppleWebKit/537.36 (KHTML, like Gecko) Chrome/87.0.4280.88 Safari/537.36" etag="RlPn6uHZqbNOP0Fe4ELt" version="14.1.7" type="github">
  <diagram name="Page-1" id="099fd60b-425b-db50-ffb0-6b813814b670">
    <mxGraphModel dx="652" dy="446" grid="1" gridSize="10" guides="1" tooltips="1" connect="1" arrows="1" fold="1" page="1" pageScale="1" pageWidth="850" pageHeight="1100" background="#ffffff" math="0" shadow="0">
      <root>
        <mxCell id="0" />
        <mxCell id="1" parent="0" />
        <mxCell id="hwqlcYJ2XyR5q5HwQrFq-1" value="&lt;p style=&quot;line-height: 120%&quot;&gt;&lt;br&gt;&lt;/p&gt;" style="rounded=0;whiteSpace=wrap;html=1;align=left;" vertex="1" parent="1">
          <mxGeometry x="215" y="340" width="420" height="420" as="geometry" />
        </mxCell>
        <mxCell id="hwqlcYJ2XyR5q5HwQrFq-2" value="I$" style="rounded=0;whiteSpace=wrap;html=1;" vertex="1" parent="1">
          <mxGeometry x="230" y="350" width="120" height="60" as="geometry" />
        </mxCell>
        <mxCell id="hwqlcYJ2XyR5q5HwQrFq-13" style="edgeStyle=orthogonalEdgeStyle;rounded=0;orthogonalLoop=1;jettySize=auto;html=1;exitX=0.75;exitY=1;exitDx=0;exitDy=0;entryX=0.75;entryY=0;entryDx=0;entryDy=0;strokeWidth=6;" edge="1" parent="1" source="hwqlcYJ2XyR5q5HwQrFq-3" target="hwqlcYJ2XyR5q5HwQrFq-4">
          <mxGeometry relative="1" as="geometry" />
        </mxCell>
        <mxCell id="hwqlcYJ2XyR5q5HwQrFq-3" value="ISU" style="rounded=0;whiteSpace=wrap;html=1;" vertex="1" parent="1">
          <mxGeometry x="335" y="440" width="180" height="60" as="geometry" />
        </mxCell>
        <mxCell id="hwqlcYJ2XyR5q5HwQrFq-11" style="edgeStyle=orthogonalEdgeStyle;rounded=0;orthogonalLoop=1;jettySize=auto;html=1;exitX=0.25;exitY=0;exitDx=0;exitDy=0;entryX=0.25;entryY=1;entryDx=0;entryDy=0;strokeWidth=6;" edge="1" parent="1" source="hwqlcYJ2XyR5q5HwQrFq-4" target="hwqlcYJ2XyR5q5HwQrFq-3">
          <mxGeometry relative="1" as="geometry" />
        </mxCell>
        <mxCell id="hwqlcYJ2XyR5q5HwQrFq-14" style="edgeStyle=orthogonalEdgeStyle;rounded=0;orthogonalLoop=1;jettySize=auto;html=1;exitX=0.75;exitY=1;exitDx=0;exitDy=0;entryX=0.75;entryY=0;entryDx=0;entryDy=0;strokeWidth=6;" edge="1" parent="1" source="hwqlcYJ2XyR5q5HwQrFq-4" target="hwqlcYJ2XyR5q5HwQrFq-5">
          <mxGeometry relative="1" as="geometry" />
        </mxCell>
        <mxCell id="hwqlcYJ2XyR5q5HwQrFq-4" value="SU" style="rounded=0;whiteSpace=wrap;html=1;" vertex="1" parent="1">
          <mxGeometry x="335" y="530" width="180" height="60" as="geometry" />
        </mxCell>
        <mxCell id="hwqlcYJ2XyR5q5HwQrFq-10" style="edgeStyle=orthogonalEdgeStyle;rounded=0;orthogonalLoop=1;jettySize=auto;html=1;exitX=0.25;exitY=0;exitDx=0;exitDy=0;entryX=0.25;entryY=1;entryDx=0;entryDy=0;strokeWidth=6;" edge="1" parent="1" source="hwqlcYJ2XyR5q5HwQrFq-5" target="hwqlcYJ2XyR5q5HwQrFq-4">
          <mxGeometry relative="1" as="geometry" />
        </mxCell>
        <mxCell id="hwqlcYJ2XyR5q5HwQrFq-5" value="DEXU" style="rounded=0;whiteSpace=wrap;html=1;" vertex="1" parent="1">
          <mxGeometry x="335" y="620" width="180" height="80" as="geometry" />
        </mxCell>
      </root>
    </mxGraphModel>
  </diagram>
</mxfile>
